REM MD5 8b3c4ecf1e952ffe2affbaa3a6048715
FILE "Tennis (USA).bin" BINARY
  TRACK 01 MODE2/2352
    INDEX 01 00:00:00
  TRACK 02 AUDIO
    INDEX 00 00:15:48
    INDEX 01 00:17:48
  TRACK 03 AUDIO
    INDEX 00 03:10:59
    INDEX 01 03:12:59
  TRACK 04 AUDIO
    INDEX 00 06:47:00
    INDEX 01 06:49:00
REM LEADOUT 09:59:00
